<svg width="40" height="40" viewBox="0 0 40 40" fill="none" xmlns="http://www.w3.org/2000/svg">
<path d="M35.7585 13.5021C35.9836 10.6329 36.8556 8.01688 38.3746 5.65401L32.5518 0C30.6952 1.57527 28.5855 2.41916 26.2227 2.53165C24.0286 2.75671 21.9751 2.36287 20.0623 1.35021C18.0932 2.30658 16.0398 2.70042 13.902 2.53165C11.6516 2.36287 9.65447 1.60338 7.91042 0.253165L2.08764 5.82278C3.49413 8.29814 4.28173 10.858 4.45051 13.5021C4.50679 14.7398 4.14105 16.4557 3.35346 18.6498C2.90342 19.8312 2.56586 20.872 2.3408 21.7722C2.17203 22.6723 2.05954 23.3755 2.00325 23.8819C1.94696 26.1884 2.62207 28.27 4.02857 30.1266C5.09751 31.5331 6.89776 33.0521 9.42941 34.6835C12.1298 36.0338 14.2114 36.8776 15.6741 37.2152C15.8429 37.2715 16.0539 37.3699 16.307 37.5106C16.5602 37.6512 16.7712 37.7496 16.94 37.8059L18.1214 38.3122C19.0778 38.8749 19.7248 39.4374 20.0623 40C20.4562 39.3812 21.1031 38.8186 22.0032 38.3122C22.7346 38.031 23.2691 37.8059 23.6066 37.6371C24.1692 37.4121 24.4786 37.2715 24.5349 37.2152C24.8724 37.1027 25.2944 36.9339 25.8007 36.7089L27.6573 36.0338C29.0638 35.5837 30.1045 35.1336 30.7796 34.6835C33.1988 33.0521 34.9709 31.5612 36.0961 30.211C37.5026 28.3544 38.2058 26.2447 38.2058 23.8819C38.0933 22.8129 37.6151 21.1251 36.7712 18.8186C35.9836 16.512 35.646 14.7398 35.7585 13.5021Z" fill="#A3885F"/>
<path d="M25 14L18 20.5L15 18L14 18.5L18 23L26 14.5L25 14Z" fill="white"/>
</svg>
